<?xml version="1.0" standalone="no"?>
<!DOCTYPE svg PUBLIC "-//W3C//DTD SVG 20010904//EN"
 "http://www.w3.org/TR/2001/REC-SVG-20010904/DTD/svg10.dtd">
<svg version="1.0" xmlns="http://www.w3.org/2000/svg"
 width="296.000000pt" height="57.000000pt" viewBox="0 0 296.000000 57.000000"
 preserveAspectRatio="xMidYMid meet">

<g transform="translate(0.000000,57.000000) scale(0.100000,-0.100000)"
fill="#000000" stroke="none">
<path d="M0 285 l0 -285 1480 0 1480 0 0 285 0 285 -1480 0 -1480 0 0 -285z
m710 181 l0 -65 53 -3 c64 -4 64 -21 0 -28 l-48 -5 -3 -74 c-3 -85 10 -108 64
-113 47 -4 43 -22 -6 -26 -32 -3 -45 2 -65 22 -25 25 -25 27 -25 191 0 140 2
165 15 165 12 0 15 -14 15 -64z m1138 -4 l3 -62 49 0 c38 0 50 -4 50 -15 0
-11 -12 -15 -50 -15 l-50 0 0 -85 c0 -93 8 -105 69 -105 21 0 31 -5 31 -15 0
-24 -81 -20 -108 5 -21 20 -22 29 -22 191 0 132 3 170 13 167 7 -3 13 -28 15
-66z m-1608 38 c0 -5 -9 -10 -20 -10 -19 0 -20 -7 -20 -155 0 -148 1 -155 20
-155 11 0 20 -4 20 -10 0 -5 -16 -10 -35 -10 l-35 0 0 175 0 175 35 0 c19 0
35 -4 35 -10z m68 -1 c-2 -6 -8 -10 -13 -10 -5 0 -11 4 -13 10 -2 6 4 11 13
11 9 0 15 -5 13 -11z m112 -164 l0 -175 -35 0 c-41 0 -45 7 -10 20 l26 10 -3
147 c-3 145 -3 148 -25 151 -36 5 -27 22 12 22 l35 0 0 -175z m-112 -2 c-4
-127 -22 -125 -26 2 -2 81 0 95 13 95 13 0 15 -14 13 -97z m330 -61 c-4 -147
-22 -153 -26 -8 -3 116 2 146 19 129 6 -6 9 -56 7 -121z m481 107 c18 -17 21
-29 19 -72 l-3 -52 -120 -3 c-66 -1 -124 -7 -129 -12 -5 -5 -2 -19 8 -34 16
-25 20 -26 126 -26 91 0 110 -3 110 -15 0 -12 -19 -15 -114 -15 -154 0 -161 5
-161 125 0 117 9 125 144 125 85 0 100 -3 120 -21z m317 -4 c26 -26 29 -55 7
-63 -7 -2 -13 3 -13 12 0 29 -41 46 -110 46 -94 0 -99 -6 -102 -119 -2 -65 -7
-96 -15 -99 -10 -3 -13 22 -13 102 0 139 6 146 132 146 82 0 91 -2 114 -25z
m312 5 c26 -25 36 -76 29 -143 -9 -77 -26 -87 -148 -87 -114 0 -139 13 -139
73 0 63 15 72 139 75 109 4 111 4 111 28 0 35 -28 44 -144 44 -88 0 -106 3
-106 15 0 12 20 15 118 15 104 0 121 -2 140 -20z m272 -105 c0 -100 -8 -133
-29 -121 -16 10 -15 233 2 239 21 7 27 -16 27 -118z m84 88 c13 -21 40 -68 60
-105 20 -38 40 -68 44 -68 4 0 30 41 57 91 63 115 71 127 84 114 7 -7 -11 -48
-53 -125 -51 -92 -69 -116 -88 -118 -18 -2 -28 4 -39 25 -7 15 -35 66 -61 113
-27 47 -48 91 -48 98 0 23 20 12 44 -25z m541 12 c19 -18 25 -35 25 -69 0 -55
0 -55 -154 -59 -65 -1 -111 -6 -113 -12 -2 -6 3 -20 11 -30 12 -17 30 -21 128
-25 65 -3 113 -9 113 -15 0 -11 -195 -20 -232 -10 -32 8 -53 55 -53 120 0 106
23 124 153 125 91 0 100 -2 122 -25z m115 -80 c0 -8 -7 -15 -15 -15 -8 0 -15
7 -15 15 0 8 7 15 15 15 8 0 15 -7 15 -15z m-2 -151 c-5 -43 -25 -41 -23 3 3
49 3 49 16 36 6 -6 9 -23 7 -39z"/>
<path d="M900 350 c-11 -11 -20 -26 -20 -33 0 -30 25 -37 127 -37 l103 0 0 35
c0 45 -20 55 -114 55 -63 0 -80 -4 -96 -20z"/>
<path d="M1538 259 c-21 -12 -24 -49 -6 -67 16 -16 180 -16 196 0 7 7 12 27
12 45 l0 33 -92 0 c-51 0 -101 -5 -110 -11z"/>
<path d="M2420 350 c-24 -24 -26 -56 -4 -64 20 -8 188 -8 208 0 23 9 19 50 -6
68 -16 11 -46 16 -100 16 -65 0 -81 -3 -98 -20z"/>
</g>
</svg>
